<svg height="512pt" viewBox="0 -91 512 512" width="512pt" xmlns="http://www.w3.org/2000/svg"><g fill="#e8e7e6"><path d="m504.394531 269.210938v14.539062c0 20.863281-16.917969 37.785156-37.796875 37.785156h-421.207031c-20.875 0-37.785156-16.921875-37.785156-37.785156v-14.539062zm0 0"/><path d="m504.394531 164.570312v52.324219h-496.789062v-52.324219zm0 0"/><path d="m7.605469 59.929688h496.789062v52.316406h-496.789062zm0 0"/></g><path d="m7.605469 216.894531h496.789062v52.316407h-496.789062zm0 0" fill="#ff4440"/><path d="m504.394531 112.246094v52.324218h-496.789062v-52.324218zm0 0" fill="#ff4440"/><path d="m504.394531 45.390625v14.539063h-496.789062v-14.539063c0-20.875 16.910156-37.785156 37.785156-37.785156h421.207031c20.878906 0 37.796875 16.910156 37.796875 37.785156zm0 0" fill="#ff4440"/><path d="m238.265625 42.90625v82.476562c0 21.648438-17.539063 39.1875-39.183594 39.1875h-156.175781c-19.496094 0-35.300781-15.804687-35.300781-35.304687v-83.875c0-20.875 16.910156-37.785156 37.785156-37.785156h157.574219c19.496094 0 35.300781 15.804687 35.300781 35.300781zm0 0" fill="#5eaad1"/><path d="m466.597656 0h-421.207031c-25.027344 0-45.390625 20.363281-45.390625 45.390625v238.359375c0 25.027344 20.363281 45.390625 45.390625 45.390625h14.074219c4.199218 0 7.601562-3.40625 7.601562-7.605469 0-4.199218-3.402344-7.601562-7.601562-7.601562h-14.074219c-16.644531 0-30.183594-13.542969-30.183594-30.183594v-6.933594h481.585938v6.933594c0 16.640625-13.546875 30.183594-30.195313 30.183594h-376.71875c-4.199218 0-7.601562 3.402344-7.601562 7.601562 0 4.199219 3.402344 7.605469 7.601562 7.605469h376.71875c25.035156 0 45.402344-20.363281 45.402344-45.390625v-238.359375c0-25.027344-20.367188-45.390625-45.402344-45.390625zm30.195313 172.175781v37.113281h-481.585938v-47.292968c7.480469 6.34375 17.148438 10.179687 27.699219 10.179687zm-250.921875-46.792969v-5.535156h250.921875v37.117188h-263.222657c7.632813-8.328125 12.300782-19.417969 12.300782-31.582032zm250.921875-79.992187v6.933594h-76.917969c-4.199219 0-7.601562 3.40625-7.601562 7.605469 0 4.199218 3.402343 7.605468 7.601562 7.605468h76.917969v37.105469h-250.921875v-37.105469h143.585937c4.199219 0 7.605469-3.40625 7.605469-7.605468 0-4.199219-3.40625-7.605469-7.605469-7.605469h-143.585937v-9.417969c0-10.550781-3.835938-20.21875-10.175782-27.699219h230.902344c16.648438 0 30.195313 13.539063 30.195313 30.183594zm-481.585938 0c0-16.644531 13.539063-30.183594 30.183594-30.183594h157.570313c15.277343 0 27.703124 12.425781 27.703124 27.699219v82.476562c0 17.414063-14.167968 31.582032-31.582031 31.582032h-156.175781c-15.273438 0-27.699219-12.425782-27.699219-27.699219zm0 216.21875v-37.113281h481.585938v37.113281zm0 0"/><path d="m43.679688 49.457031c2.503906 5.929688 11.128906 6.214844 13.894531.335938 1.324219-2.820313.777343-6.265625-1.390625-8.511719-2.390625-2.484375-6.230469-3.019531-9.226563-1.339844-3.285156 1.835938-4.75 6.03125-3.277343 9.515625zm0 0"/><path d="m115.917969 49.457031c1.265625 2.992188 4.316406 4.90625 7.578125 4.667969 3.308594-.238281 6.117187-2.675781 6.855468-5.90625 1.523438-6.660156-6.1875-11.742188-11.757812-7.90625-2.890625 1.988281-4.046875 5.90625-2.675781 9.144531zm0 0"/><path d="m188.15625 49.457031c1.203125 3.007813 4.359375 4.902344 7.574219 4.667969 3.234375-.234375 6.027343-2.582031 6.8125-5.726562 1.6875-6.753907-6.195313-12.054688-11.835938-8-2.808593 2.015624-3.902343 5.867187-2.550781 9.058593zm0 0"/><path d="m79.800781 49.457031c1.230469 3.078125 4.519531 4.996094 7.804688 4.648438 3.078125-.324219 5.714843-2.539063 6.535156-5.527344 1.808594-6.578125-5.628906-12.074219-11.382813-8.449219-3.078124 1.9375-4.375 5.964844-2.957031 9.328125zm0 0"/><path d="m152.03125 49.457031c2.511719 5.949219 11.109375 6.191407 13.886719.335938 1.359375-2.855469.757812-6.382813-1.488281-8.621094-2.390626-2.378906-6.152344-2.886719-9.09375-1.253906-3.304688 1.839843-4.78125 6.042969-3.304688 9.539062zm0 0"/><path d="m61.734375 88.996094c1.214844 2.863281 4.085937 4.769531 7.214844 4.6875 3.046875-.078125 5.800781-2.019532 6.894531-4.859375 1.144531-2.972657.285156-6.449219-2.144531-8.519531-2.460938-2.09375-6.074219-2.394532-8.84375-.734376-3.214844 1.925782-4.503907 5.964844-3.121094 9.425782zm0 0"/><path d="m133.972656 88.996094c1.210938 2.863281 4.074219 4.765625 7.203125 4.6875 3.121094-.078125 5.917969-2.105469 6.976563-5.035156 2.390625-6.621094-5.152344-12.695313-11.128906-9.039063-3.136719 1.917969-4.484376 5.984375-3.050782 9.386719zm0 0"/><path d="m97.859375 88.996094c2.476563 6.195312 11.515625 6.046875 14.042969 0 1.230468-2.957032.410156-6.464844-1.976563-8.589844-2.507812-2.234375-6.28125-2.527344-9.109375-.734375-3.070312 1.941406-4.378906 5.953125-2.957031 9.324219zm0 0"/><path d="m170.085938 88.996094c1.210937 2.867187 4.085937 4.769531 7.214843 4.6875 3.113281-.078125 5.910157-2.105469 6.964844-5.035156 1.066406-2.976563.125-6.433594-2.332031-8.4375-2.578125-2.101563-6.273438-2.273438-9.046875-.441407-3.007813 1.984375-4.121094 5.910157-2.800781 9.226563zm0 0"/><path d="m46.476562 131.953125c2.855469 1.875 6.71875 1.636719 9.277344-.644531 2.347656-2.097656 3.160156-5.480469 2.03125-8.417969-2.4375-6.347656-11.714844-6.339844-14.175781 0-1.277344 3.296875-.03125 7.082031 2.867187 9.0625zm0 0"/><path d="m118.714844 131.953125c5.660156 3.71875 13.289062-1.550781 11.59375-8.175781-.835938-3.28125-3.796875-5.664063-7.1875-5.75-3.25-.082032-6.242188 1.988281-7.339844 5.039062-1.179688 3.269532.082031 6.9375 2.933594 8.886719zm0 0"/><path d="m190.953125 131.953125c5.875 3.960937 13.667969-2.042969 11.429687-8.710937-1.03125-3.078126-3.953124-5.21875-7.214843-5.21875-3.167969 0-6.097657 2.054687-7.15625 5.039062-1.164063 3.277344.085937 6.9375 2.941406 8.890625zm0 0"/><path d="m86.816406 133.230469c3.277344 0 6.238282-2.175781 7.238282-5.285157 1-3.109374-.164063-6.605468-2.820313-8.503906-5.5625-3.972656-13.382813 1.210938-11.820313 7.902344.792969 3.398438 3.910157 5.886719 7.402344 5.886719zm0 0"/><path d="m159.054688 133.230469c7 0 10.207031-9.035157 4.820312-13.480469-2.632812-2.167969-6.535156-2.28125-9.292969-.277344-2.578125 1.875-3.722656 5.273438-2.808593 8.324219.949218 3.183594 3.953124 5.433594 7.28125 5.433594zm0 0"/></svg>